<svg width="48" height="48" viewBox="0 0 48 48" fill="none" xmlns="http://www.w3.org/2000/svg">
<path fill-rule="evenodd" clip-rule="evenodd" d="M14.6755 2.24982C13.9621 2.76416 14.0169 0.968228 14.0169 23.8495V44.3704H13.585H13.153V27.41V10.4497L7.06457 10.4773C0.274822 10.5082 0.777144 10.4545 0.248136 11.2063C0.0502985 11.4874 0.0502027 11.4945 0.0251491 28.7437L0 46H24H48L47.9748 28.7437L47.9498 11.4875L47.749 11.2C47.6385 11.0418 47.4053 10.8094 47.2308 10.6833L46.9135 10.4541H40.8802H34.847V27.4122V44.3704H34.415H33.9831V23.7925C33.9831 3.27993 33.9825 3.21332 33.7873 2.80725C33.3692 1.93785 34.1399 2.0013 23.9983 2.00089L15.0214 2.00049L14.6755 2.24982ZM25.4097 4.25893C25.6219 4.47047 25.6318 4.54604 25.6318 5.93946V7.39858H26.9628C28.8235 7.39858 28.7996 7.37596 28.7996 9.13747C28.7996 10.922 28.8619 10.8615 27.0237 10.8615H25.6318V12.3156C25.6318 14.3059 25.7012 14.2226 24.0425 14.2226C22.3035 14.2226 22.3681 14.2953 22.3681 12.3383V10.8615H20.9763C19.1381 10.8615 19.2004 10.922 19.2004 9.13747C19.2004 7.37596 19.1765 7.39858 21.0372 7.39858H22.3681V5.98642C22.3681 4.01734 22.3515 4.0375 23.9768 4.0375C25.0878 4.0375 25.2058 4.05573 25.4097 4.25893ZM5.2608 17.6711C5.29526 19.2763 5.34757 19.2133 3.98095 19.2133C2.56661 19.2133 2.59397 19.2422 2.59397 17.7496C2.59397 16.2903 2.53253 16.3487 4.03172 16.384L5.23373 16.4124L5.2608 17.6711ZM10.5403 17.6711C10.5748 19.2763 10.6271 19.2133 9.26046 19.2133C7.84613 19.2133 7.87348 19.2422 7.87348 17.7496C7.87348 16.2903 7.81205 16.3487 9.31124 16.384L10.5132 16.4124L10.5403 17.6711ZM20.0433 17.7285C20.0757 19.3037 20.1576 19.2097 18.7513 19.2117C17.36 19.2138 17.3766 19.2306 17.3766 17.8243C17.3766 16.2968 17.3246 16.3495 18.7974 16.3839L20.0164 16.4124L20.0433 17.7285ZM25.3229 17.6711C25.3574 19.2763 25.4097 19.2133 24.0431 19.2133C22.6288 19.2133 22.6561 19.2422 22.6561 17.7496C22.6561 16.2903 22.5947 16.3487 24.0939 16.384L25.2959 16.4124L25.3229 17.6711ZM30.6025 17.6711C30.6369 19.2763 30.6892 19.2133 29.3226 19.2133C27.9173 19.2133 27.9356 19.2316 27.9356 17.8243C27.9356 16.2968 27.8836 16.3495 29.3564 16.3839L30.5754 16.4124L30.6025 17.6711ZM40.0113 16.4837C40.1974 16.681 40.1673 18.8499 39.9757 19.0533C39.784 19.2565 37.74 19.2884 37.554 19.091C37.4304 18.96 37.3841 16.5552 37.5028 16.4294C37.6213 16.3035 39.8878 16.3526 40.0113 16.4837ZM45.2908 16.4837C45.4769 16.681 45.4468 18.8499 45.2552 19.0533C45.0635 19.2565 43.0195 19.2884 42.8335 19.091C42.7099 18.96 42.6637 16.5552 42.7823 16.4294C42.9009 16.3035 45.1673 16.3526 45.2908 16.4837ZM5.26089 26.4436C5.29449 28.0201 5.33605 27.9724 3.92633 27.9724C2.57429 27.9724 2.59397 27.994 2.59397 26.5087C2.59397 25.0495 2.53253 25.1079 4.03172 25.1432L5.23373 25.1715L5.26089 26.4436ZM10.5404 26.4436C10.574 28.0201 10.6156 27.9724 9.20584 27.9724C7.85381 27.9724 7.87348 27.994 7.87348 26.5087C7.87348 25.0495 7.81205 25.1079 9.31124 25.1432L10.5132 25.1715L10.5404 26.4436ZM20.0434 26.4303C20.0778 28.0324 20.1267 27.9724 18.7883 27.9724C17.3756 27.9724 17.3766 27.9734 17.3766 26.5749C17.3766 25.0569 17.3253 25.1087 18.7974 25.1431L20.0164 25.1715L20.0434 26.4303ZM25.3229 26.4303C25.3573 28.0324 25.4062 27.9724 24.0678 27.9724C22.6449 27.9724 22.6561 27.9841 22.6561 26.5002C22.6561 25.0506 22.5955 25.1079 24.0939 25.1432L25.2959 25.1715L25.3229 26.4303ZM30.6026 26.4436C30.6361 28.017 30.6743 27.9724 29.2928 27.9724C27.9422 27.9724 27.9356 27.9657 27.9356 26.5749C27.9356 25.0569 27.8843 25.1087 29.3564 25.1431L30.5754 25.1715L30.6026 26.4436ZM40.0113 25.2428C40.1974 25.4402 40.1673 27.609 39.9757 27.8124C39.7972 28.0018 37.9378 28.0449 37.6244 27.867C37.4363 27.7602 37.3279 25.3741 37.5028 25.1885C37.6213 25.0626 39.8878 25.1117 40.0113 25.2428ZM45.2908 25.2428C45.4769 25.4402 45.4468 27.609 45.2552 27.8124C45.0767 28.0018 43.2173 28.0449 42.9039 27.867C42.7158 27.7602 42.6074 25.3741 42.7823 25.1885C42.9009 25.0626 45.1673 25.1117 45.2908 25.2428ZM5.12257 33.9062C5.26656 34.0181 5.2845 34.1993 5.26089 35.3067L5.23373 36.5788L4.04737 36.6075C3.25458 36.6267 2.81667 36.5971 2.72749 36.5186C2.52351 36.3391 2.5382 34.1572 2.74477 33.9379C2.93983 33.731 4.86358 33.7054 5.12257 33.9062ZM10.4021 33.9062C10.5461 34.0181 10.564 34.1993 10.5404 35.3067L10.5132 36.5788L9.32688 36.6075C8.53409 36.6267 8.09618 36.5971 8.00701 36.5186C7.80302 36.3391 7.81771 34.1572 8.02429 33.9379C8.21934 33.731 10.1431 33.7054 10.4021 33.9062ZM23.3845 34.1146L23.616 34.4004V39.3854V44.3704H20.9763H18.3365L18.3399 39.4561C18.3443 33.175 18.0547 33.7669 21.1047 33.804L23.1531 33.8288L23.3845 34.1146ZM29.416 34.0757L29.6635 34.3227V39.3465V44.3704H27.0717H24.48L24.483 39.3542C24.4862 34.0956 24.4805 34.1672 24.9119 33.8979C25.3281 33.638 29.1276 33.788 29.416 34.0757ZM39.9757 33.9379C40.1823 34.1572 40.197 36.3391 39.993 36.5186C39.9038 36.5971 39.4659 36.6267 38.6731 36.6075L37.4868 36.5788L37.4596 35.3067C37.436 34.1993 37.4539 34.0181 37.5979 33.9062C37.8569 33.7054 39.7807 33.731 39.9757 33.9379ZM45.2552 33.9379C45.4618 34.1572 45.4765 36.3391 45.2725 36.5186C45.1833 36.5971 44.7454 36.6267 43.9526 36.6075L42.7663 36.5788L42.7391 35.3067C42.7155 34.1993 42.7334 34.0181 42.8774 33.9062C43.1364 33.7054 45.0602 33.731 45.2552 33.9379Z" fill="black"/>
</svg>
