<svg width="48" height="48" viewBox="0 0 48 48" fill="none" xmlns="http://www.w3.org/2000/svg">
<path d="M33 11C33 11.8284 33.6716 12.5 34.5 12.5C35.3284 12.5 36 11.8284 36 11H33ZM36 5C36 4.17157 35.3284 3.5 34.5 3.5C33.6716 3.5 33 4.17157 33 5H36ZM15 5C15 4.17157 14.3284 3.5 13.5 3.5C12.6716 3.5 12 4.17157 12 5H15ZM12 11C12 11.8284 12.6716 12.5 13.5 12.5C14.3284 12.5 15 11.8284 15 11H12ZM39.5 41.5H8.5V44.5H39.5V41.5ZM6 39V16H3V39H6ZM6 16V12.5H3V16H6ZM42 12.5V16H45V12.5H42ZM42 16V39H45V16H42ZM4.5 17.5H43.5V14.5H4.5V17.5ZM34.5 10H39.5V7H34.5V10ZM33 8.5V11H36V8.5H33ZM36 8.5V5H33V8.5H36ZM8.5 10H13.5V7H8.5V10ZM13.5 10H34.5V7H13.5V10ZM15 8.5V5H12V8.5H15ZM12 8.5V11H15V8.5H12ZM8.5 41.5C7.11929 41.5 6 40.3807 6 39H3C3 42.0376 5.46243 44.5 8.5 44.5V41.5ZM39.5 44.5C42.5376 44.5 45 42.0376 45 39H42C42 40.3807 40.8807 41.5 39.5 41.5V44.5ZM45 12.5C45 9.46243 42.5376 7 39.5 7V10C40.8807 10 42 11.1193 42 12.5H45ZM6 12.5C6 11.1193 7.11929 10 8.5 10V7C5.46243 7 3 9.46243 3 12.5H6Z" fill="black"/>
</svg>
