<svg width="48" height="48" viewBox="0 0 48 48" fill="none" xmlns="http://www.w3.org/2000/svg">
<path fill-rule="evenodd" clip-rule="evenodd" d="M41.8943 7.69234L41.9623 7.88516L41.9866 25.7495C41.9885 27.1815 41.9905 28.5038 41.9924 29.725C41.9985 33.7086 42.003 36.616 41.9974 38.7427C41.9295 38.6679 41.8603 38.5916 41.7897 38.5139L36.9127 33.1409L7.48546 33.0851L7.47796 33.0819C7.02066 32.8911 6.56818 32.476 6.31123 31.9356C6.25666 31.8208 6.22364 31.7528 6.20057 31.7054C6.17229 31.6472 6.15887 31.6196 6.13878 31.5737L6.13665 31.5688C6.12494 31.5159 6.08225 31.2817 6.05167 30.5585C5.98954 29.0894 5.99563 26.3595 6.00835 20.6574C6.00935 20.2133 6.01038 19.7511 6.01142 19.27L6.03601 7.88633L6.10447 7.69234C6.44008 6.74108 6.87026 6.32828 7.62445 6.02561L7.65075 6.01506L23.6737 6.00115C28.2737 5.99716 32.481 6.00377 35.5752 6.01769C37.1232 6.02466 38.3878 6.03344 39.2821 6.04357C39.7306 6.04865 40.0777 6.05398 40.3178 6.05939C40.3689 6.06054 40.4132 6.06165 40.4509 6.0627C40.8429 6.18145 41.5321 6.66579 41.8943 7.69234ZM40.592 6.06752C40.6118 6.06894 40.6243 6.06938 40.6243 6.06938C40.6243 6.06938 40.6153 6.06858 40.592 6.06752ZM3.03712 7.36939L3.01143 19.2635C2.9868 30.6252 2.96475 31.7669 3.36992 32.7287C3.43545 32.8842 3.51216 33.0351 3.60184 33.2237C4.16421 34.4066 5.15642 35.3643 6.32346 35.8509L6.88255 36.0839L35.582 36.1383L39.5684 40.5302C40.578 41.6425 41.3464 42.4888 41.9396 43.1288C41.9934 43.1868 42.0457 43.243 42.0966 43.2977C43.8195 45.1468 43.9516 45.1084 44.3918 44.9052C44.4812 44.8639 44.5578 44.8558 44.6233 44.8246C44.8275 44.7274 44.925 44.406 44.9685 42.1605C44.9697 42.0982 44.9708 42.0344 44.972 41.9691C45.015 39.4678 44.9988 34.7401 44.9866 25.7454L44.9616 7.36939L44.7233 6.69403C44.0485 4.78124 42.5106 3.35132 40.8348 3.07838C40.5227 3.02758 32.8786 2.99317 23.6711 3.00115L7.07013 3.01556L6.50738 3.24134C4.90469 3.88446 3.88077 4.97831 3.27544 6.69403L3.03712 7.36939Z" fill="black"/>
</svg>
