<svg width="48" height="48" viewBox="0 0 48 48" fill="none" xmlns="http://www.w3.org/2000/svg">
<path fill-rule="evenodd" clip-rule="evenodd" d="M23.308 2.15198C23.1016 2.22451 22.7122 2.49232 22.4426 2.74715C22.1729 3.00188 21.0004 4.0808 19.837 5.14466C18.6735 6.20852 17.4187 7.36092 17.0485 7.70552C16.6783 8.05012 16.0066 8.66974 15.556 9.08251C15.1052 9.49527 13.1148 11.3251 11.1328 13.149C9.1508 14.9728 6.29597 17.5954 4.78874 18.9773C0.0837979 23.2905 0.144184 23.2272 0.0227401 23.976C-0.224089 25.4979 1.59093 26.7098 2.9219 25.9118C3.08161 25.816 6.23885 22.9679 9.93802 19.5827C22.9882 7.64001 23.9628 6.75192 24.0176 6.75192C24.0696 6.75192 26.1757 8.67154 39.4961 20.8595C42.4287 23.5429 44.9586 25.8165 45.1181 25.9121C46.3584 26.6558 47.9919 25.7144 47.9998 24.2514C48.0044 23.385 47.9546 23.3276 44.3343 20.0209C42.4955 18.3414 40.8721 16.8439 40.7266 16.6929L40.4621 16.4186V9.87504C40.4621 1.35187 40.7713 2.01187 36.7784 2.01187C34.1454 2.01187 33.9235 2.07084 33.3948 2.91219L33.1063 3.37113L33.0582 6.49017L33.0102 9.60912L30.414 7.21549C24.9709 2.19711 25.0246 2.24432 24.6218 2.12535C24.1302 1.98011 23.7768 1.98732 23.308 2.15198ZM15.0057 16.7281L6.04962 24.8115L6.04424 34.9716L6.03876 45.1318L6.29866 45.4363C6.81203 46.0378 5.60616 45.9995 24.0197 45.9995C42.4332 45.9995 41.2273 46.0378 41.7407 45.4363L42.0006 45.1318L41.9952 34.9716L41.9898 24.8115L33.0667 16.758C28.159 12.3285 24.1027 8.69098 24.0526 8.67458C24.0026 8.65808 19.9314 12.2822 15.0057 16.7281ZM25.9952 25.5656C26.2301 25.7971 26.2312 25.8074 26.2312 27.6987V29.5989H28.1437C30.6766 29.5989 30.5 29.4589 30.541 31.5006C30.5908 33.9879 30.7146 33.865 28.1598 33.865H26.2422L26.2127 35.8169C26.1748 38.3193 26.3496 38.131 24.065 38.131C21.6819 38.131 21.8081 38.2687 21.8081 35.6709V33.865H19.8904C18.0017 33.865 17.9686 33.8615 17.7029 33.6362L17.4331 33.4074V31.732V30.0566L17.7029 29.8277C17.9685 29.6025 18.0021 29.5989 19.8849 29.5989H21.7972L21.8267 27.647C21.8646 25.1394 21.68 25.3329 24.0347 25.3329C25.7375 25.3329 25.7622 25.3358 25.9952 25.5656Z" fill="black"/>
</svg>
