<svg width="48" height="48" viewBox="0 0 48 48" fill="none" xmlns="http://www.w3.org/2000/svg">
<path d="M34.4692 5.17392C32.5732 5.54699 30.4794 6.53046 28.7202 7.86116L28.4357 8.08213C27.0047 9.2226 25.4499 10.8855 24.2321 12.5462L24.0374 12.8158L24.008 12.7719C22.1165 10.0584 19.4409 7.59447 16.9721 6.35896C15.0876 5.41563 13.8118 5.0778 11.8993 5.02401L11.4008 5.01392C10.6418 5.00638 10.2092 5.04745 9.62098 5.17223C7.61577 5.59739 5.75095 6.57108 4.24219 7.97894C1.66529 10.3835 0.602605 13.7172 1.13267 17.5869C2.2871 26.0155 10.4253 35.681 21.564 42.0499L22.1552 42.3812C22.2136 42.413 22.2698 42.4431 22.3241 42.4718L22.6274 42.6261C23.099 42.8549 23.4151 42.9473 23.7917 42.9819L23.9929 42.9963C24.413 43.0163 24.7452 42.9586 25.2492 42.7329L25.4949 42.6164L25.7708 42.4742L26.2534 42.208L26.8356 41.8725L27.0552 41.7442C34.2715 37.5156 40.3087 31.7923 43.8588 25.7912C45.346 23.2774 46.3508 20.7075 46.8248 18.1899C47.0385 17.054 47.0625 14.5994 46.8646 13.5577C46.2058 10.0894 44.0756 7.45214 40.7167 5.92413C39.3269 5.29179 38.3861 5.07253 36.8234 5.01534L36.3007 5.00129C35.5907 4.99155 35.1715 5.03576 34.4692 5.17392ZM36.719 7.79363C37.9126 7.83731 38.4881 7.97142 39.5379 8.44907C42.0783 9.60473 43.6081 11.4986 44.0965 14.0701C44.1542 14.3739 44.1828 14.9486 44.1838 15.5667L44.1781 16.1018C44.1637 16.726 44.1223 17.3286 44.0558 17.6821C43.6435 19.8726 42.7558 22.1428 41.4268 24.3892C38.2171 29.8148 32.7384 35.0713 26.1538 39.0349L24.704 39.8835L24.2473 40.1359L24.1496 40.184L24.0787 40.211L24.0539 40.2131L23.8681 40.129L23.6152 40.0001L23.3958 39.881L22.9756 39.6442C12.5222 33.6671 4.94439 24.6671 3.92362 17.2143C3.51057 14.1989 4.28718 11.7627 6.17685 9.99935C7.31246 8.93968 8.71321 8.2083 10.2125 7.8904L10.3139 7.86968L10.5061 7.83628C10.5377 7.83158 10.5693 7.82729 10.6012 7.8234L10.8004 7.80473L11.0259 7.79484L11.4517 7.79465L11.819 7.80307C13.3028 7.8448 14.1738 8.07545 15.6985 8.83864C17.8806 9.93069 20.4089 12.3364 22.0502 14.8888L22.4653 15.552L22.6652 15.8578L22.7867 16.0334L22.8895 16.1696L22.9588 16.2512L22.9718 16.2871L22.9913 16.3183C22.9956 16.3234 23.0005 16.3285 23.0064 16.3337L23.0532 16.3667C23.0633 16.3727 23.0746 16.3789 23.0873 16.3856L23.1829 16.431L23.6363 16.6165L23.9283 16.7318L24.4503 16.6326L24.6106 16.5967C24.7445 16.5632 24.8068 16.534 24.8628 16.4885L24.9191 16.4368C24.9289 16.427 24.9392 16.4165 24.9502 16.4053L25.0786 16.2875L25.1355 16.2258C25.1935 16.1603 25.2473 16.0909 25.3033 16.0123C25.3611 15.9313 25.4232 15.8375 25.4856 15.7374L25.579 15.5831C26.7156 13.6514 28.7523 11.3394 30.4331 10.068C31.8634 8.98611 33.5655 8.18662 35.0197 7.90049L35.3283 7.84346C35.6088 7.79652 35.8236 7.77868 36.1422 7.77933L36.5016 7.7863C36.5694 7.78833 36.6416 7.79079 36.719 7.79363Z" fill="black"/>
</svg>
