<svg width="48" height="48" viewBox="0 0 48 48" fill="none" xmlns="http://www.w3.org/2000/svg">
<path d="M18.7595 5.70188L18.9134 5.87305L19.0506 6.00479L19.0838 6.05038L19.1259 6.12956L19.18 6.27216L19.2764 6.6243L19.4016 7.20131L19.6823 8.70208L20.8312 15.4517L23.1901 29.5787L23.8811 33.6722L27.144 19.04L27.7201 16.5653L27.825 16.1651L27.832 16.1446C28.5073 14.382 30.7349 14.1268 31.829 15.658L31.8734 15.7302C31.8813 15.7445 31.8893 15.7599 31.8976 15.7765L31.95 15.8906L32.0401 16.1172L32.1835 16.5292L32.3569 17.0755L32.6214 17.9618L33.2517 20.1825L34.9096 26.1714L37.6253 26.1902L39.1205 26.2244C39.7413 24.7666 41.2 23.743 42.9006 23.743C45.1646 23.743 47 25.5573 47 27.7953C47 30.0334 45.1646 31.8476 42.9006 31.8476C41.1605 31.8476 39.6737 30.7761 39.0787 29.2641L37.5794 29.229L32.559 29.1951L30.4341 21.5186L30.0446 20.1365L25.3415 41.2226L25.1453 42.0438L25.0879 42.2074C25.0557 42.2844 25.0171 42.3447 24.9416 42.4212L24.8313 42.5227L24.6739 42.6522L24.3239 42.9264L23.7961 42.9794L23.5403 42.9973C23.2042 43.012 23.0633 42.969 22.8686 42.8275L22.7281 42.7182C22.7024 42.6974 22.6754 42.6753 22.6468 42.6517L22.3929 42.333L22.333 42.2502L22.2994 42.1923L22.209 41.9367L22.1705 41.7752L22.0373 41.0697L21.3615 37.1867L20.1393 29.9708L17.3744 13.4507L16.9007 10.6835L14.7068 17.9212L11.3002 29.1953L6.29582 29.229H2.53729C1.68827 29.229 1 28.5487 1 27.7094C1 26.9195 1.60968 26.2704 2.38924 26.1968L2.53729 26.1898L6.28532 26.1899L9.0052 26.1714L14.3774 8.45208L14.7084 7.42261L14.8516 6.99832C14.8741 6.93357 14.896 6.87168 14.9174 6.81246L15.0408 6.48772C15.2995 5.84713 15.515 5.59527 15.9449 5.3234C16.8413 4.75594 18.0453 4.96844 18.7595 5.70188Z" fill="black"/>
</svg>
